<svg width="26" height="26" viewBox="0 0 26 26" fill="none" xmlns="http://www.w3.org/2000/svg">
<path d="M12.6019 25.2039C19.5618 25.2039 25.2039 19.5618 25.2039 12.6019C25.2039 5.64208 19.5618 0 12.6019 0C5.64208 0 0 5.64208 0 12.6019C0 19.5618 5.64208 25.2039 12.6019 25.2039Z" fill="#FBFBFD"/>
<path d="M16.4563 8.59391H8.86825C8.86825 8.59391 6.87402 8.59391 6.87402 10.6457V14.9029C6.87402 14.9029 6.87402 16.9547 8.86825 16.9547H16.4563C16.4563 16.9547 18.4505 16.9547 18.4505 14.9029V10.6457C18.4505 10.6457 18.4505 8.59391 16.4563 8.59391ZM11.1202 15.0657V10.4829L14.9097 12.7766L11.1202 15.0657Z" fill="#5F021F"/>
<path d="M12.6022 24.9175C19.4038 24.9175 24.9177 19.4036 24.9177 12.6019C24.9177 5.80026 19.4038 0.286407 12.6022 0.286407C5.80047 0.286407 0.286621 5.80026 0.286621 12.6019C0.286621 19.4036 5.80047 24.9175 12.6022 24.9175Z" stroke="#E2E2EB" stroke-width="0.572816"/>
</svg>
