<svg width="26" height="26" viewBox="0 0 26 26" fill="none" xmlns="http://www.w3.org/2000/svg">
<path d="M12.6019 25.2039C19.5618 25.2039 25.2039 19.5618 25.2039 12.6019C25.2039 5.64209 19.5618 3.8147e-06 12.6019 3.8147e-06C5.64208 3.8147e-06 0 5.64209 0 12.6019C0 19.5618 5.64208 25.2039 12.6019 25.2039Z" fill="#FBFBFD"/>
<path fill-rule="evenodd" clip-rule="evenodd" d="M12.4579 15.5079C13.1829 15.5079 13.8781 15.2199 14.3907 14.7073C14.9033 14.1947 15.1913 13.4995 15.1913 12.7745C15.1913 12.0496 14.9033 11.3544 14.3907 10.8418C13.8781 10.3292 13.1829 10.0412 12.4579 10.0412C11.733 10.0412 11.0378 10.3292 10.5252 10.8418C10.0126 11.3544 9.72461 12.0496 9.72461 12.7745C9.72461 13.4995 10.0126 14.1947 10.5252 14.7073C11.0378 15.2199 11.733 15.5079 12.4579 15.5079ZM12.4579 14.5968C12.9412 14.5968 13.4047 14.4048 13.7464 14.063C14.0882 13.7213 14.2802 13.2578 14.2802 12.7745C14.2802 12.2913 14.0882 11.8278 13.7464 11.486C13.4047 11.1443 12.9412 10.9523 12.4579 10.9523C11.9747 10.9523 11.5112 11.1443 11.1694 11.486C10.8277 11.8278 10.6357 12.2913 10.6357 12.7745C10.6357 13.2578 10.8277 13.7213 11.1694 14.063C11.5112 14.4048 11.9747 14.5968 12.4579 14.5968Z" fill="#5F021F"/>
<path d="M15.1914 9.58523C15.0706 9.58523 14.9547 9.63323 14.8693 9.71866C14.7838 9.80409 14.7358 9.91997 14.7358 10.0408C14.7358 10.1616 14.7838 10.2775 14.8693 10.3629C14.9547 10.4483 15.0706 10.4963 15.1914 10.4963C15.3122 10.4963 15.4281 10.4483 15.5135 10.3629C15.599 10.2775 15.647 10.1616 15.647 10.0408C15.647 9.91997 15.599 9.80409 15.5135 9.71866C15.4281 9.63323 15.3122 9.58523 15.1914 9.58523Z" fill="#5F021F"/>
<path fill-rule="evenodd" clip-rule="evenodd" d="M7.74471 9.25562C7.44678 9.84055 7.44678 10.6059 7.44678 12.1365V13.4121C7.44678 14.9428 7.44678 15.7081 7.74471 16.293C8.00676 16.8073 8.42489 17.2255 8.93918 17.4875C9.52411 17.7854 10.2894 17.7854 11.8201 17.7854H13.0957C14.6263 17.7854 15.3917 17.7854 15.9766 17.4875C16.4909 17.2255 16.909 16.8073 17.1711 16.293C17.469 15.7081 17.469 14.9428 17.469 13.4121V12.1365C17.469 10.6059 17.469 9.84055 17.1711 9.25562C16.909 8.74133 16.4909 8.3232 15.9766 8.06115C15.3917 7.76322 14.6263 7.76322 13.0957 7.76322H11.8201C10.2894 7.76322 9.52411 7.76322 8.93918 8.06115C8.42489 8.3232 8.00676 8.74133 7.74471 9.25562ZM13.0957 8.67433H11.8201C11.0397 8.67433 10.509 8.67524 10.099 8.7085C9.6995 8.7413 9.49541 8.80052 9.35282 8.87295C9.00996 9.04765 8.73121 9.3264 8.55651 9.66926C8.48362 9.81185 8.4244 10.0159 8.39251 10.4155C8.35834 10.8255 8.35789 11.3562 8.35789 12.1365V13.4121C8.35789 14.1925 8.3588 14.7232 8.39205 15.1332C8.42485 15.5327 8.48408 15.7368 8.55651 15.8794C8.73121 16.2223 9.00996 16.501 9.35282 16.6757C9.49541 16.7486 9.6995 16.8078 10.099 16.8397C10.509 16.8734 11.0397 16.8743 11.8201 16.8743H13.0957C13.876 16.8743 14.4068 16.8734 14.8168 16.8402C15.2163 16.8074 15.4204 16.7481 15.563 16.6757C15.9058 16.501 16.1846 16.2223 16.3593 15.8794C16.4322 15.7368 16.4914 15.5327 16.5233 15.1332C16.557 14.7232 16.5579 14.1925 16.5579 13.4121V12.1365C16.5579 11.3562 16.557 10.8255 16.5237 10.4155C16.4909 10.0159 16.4317 9.81185 16.3593 9.66926C16.1846 9.3264 15.9058 9.04765 15.563 8.87295C15.4204 8.80006 15.2163 8.74084 14.8168 8.70895C14.4068 8.67478 13.876 8.67433 13.0957 8.67433Z" fill="#5F021F"/>
<path d="M12.6022 24.9175C19.4038 24.9175 24.9177 19.4036 24.9177 12.6019C24.9177 5.80026 19.4038 0.286407 12.6022 0.286407C5.80047 0.286407 0.286621 5.80026 0.286621 12.6019C0.286621 19.4036 5.80047 24.9175 12.6022 24.9175Z" stroke="#E2E2EB" stroke-width="0.572816"/>
</svg>
