<svg width="26" height="26" viewBox="0 0 26 26" fill="none" xmlns="http://www.w3.org/2000/svg">
<path d="M12.6019 25.2039C19.5618 25.2039 25.2039 19.5618 25.2039 12.6019C25.2039 5.64208 19.5618 0 12.6019 0C5.64208 0 0 5.64208 0 12.6019C0 19.5618 5.64208 25.2039 12.6019 25.2039Z" fill="#FBFBFD"/>
<path fill-rule="evenodd" clip-rule="evenodd" d="M13.9169 10.4026C14.1413 10.1946 14.4888 10.2173 14.5143 10.2184L15.9681 10.2178L15.9999 8.12008L15.7805 8.06623C15.64 8.03166 15.2097 7.95117 14.2615 7.95117C12.573 7.95117 11.4382 9.13297 11.4382 10.8912V11.3634H9.73779V13.6306H11.4382V17.5982H13.7054V13.6306H15.4977L15.8094 11.3634H13.7054V11.0159C13.7054 10.7399 13.7769 10.533 13.9169 10.4026Z" fill="#5F021F"/>
</svg>
