<svg width="26" height="26" viewBox="0 0 26 26" fill="none" xmlns="http://www.w3.org/2000/svg">
<path d="M12.6019 25.2039C19.5618 25.2039 25.2039 19.5618 25.2039 12.6019C25.2039 5.64208 19.5618 0 12.6019 0C5.64208 0 0 5.64208 0 12.6019C0 19.5618 5.64208 25.2039 12.6019 25.2039Z" fill="#FBFBFD"/>
<path d="M16.8795 7.30787H8.39004C8.13987 7.30787 7.89995 7.40725 7.72305 7.58415C7.54616 7.76105 7.44678 8.00097 7.44678 8.25114V16.7405C7.44678 16.9907 7.54616 17.2306 7.72305 17.4075C7.89995 17.5844 8.13987 17.6838 8.39004 17.6838H16.8795C17.1296 17.6838 17.3695 17.5844 17.5464 17.4075C17.7233 17.2306 17.8227 16.9907 17.8227 16.7405V8.25114C17.8227 8.00097 17.7233 7.76105 17.5464 7.58415C17.3695 7.40725 17.1296 7.30787 16.8795 7.30787ZM10.7265 15.7973H9.3352V11.3205H10.7265V15.7973ZM10.0167 10.6805C9.91018 10.6805 9.80469 10.6595 9.70627 10.6188C9.60785 10.578 9.51843 10.5183 9.4431 10.4429C9.36777 10.3676 9.30802 10.2782 9.26725 10.1798C9.22648 10.0813 9.2055 9.97585 9.2055 9.86932C9.2055 9.76279 9.22648 9.6573 9.26725 9.55888C9.30802 9.46046 9.36777 9.37103 9.4431 9.2957C9.51843 9.22038 9.60785 9.16062 9.70627 9.11986C9.80469 9.07909 9.91018 9.05811 10.0167 9.05811C10.2319 9.05811 10.4382 9.14357 10.5903 9.2957C10.7425 9.44783 10.8279 9.65417 10.8279 9.86932C10.8279 10.0845 10.7425 10.2908 10.5903 10.4429C10.4382 10.5951 10.2319 10.6805 10.0167 10.6805ZM15.9381 15.7973H14.5477V13.6202C14.5477 13.101 14.5383 12.4331 13.8247 12.4331C13.1007 12.4331 12.9894 12.9986 12.9894 13.5825V15.7973H11.599V11.3205H12.9338V11.9322H12.9526C13.1385 11.5804 13.5922 11.2092 14.269 11.2092C15.6777 11.2092 15.9381 12.1365 15.9381 13.342V15.7973Z" fill="#5F021F"/>
<path d="M12.6022 24.9175C19.4038 24.9175 24.9177 19.4036 24.9177 12.6019C24.9177 5.80026 19.4038 0.286407 12.6022 0.286407C5.80047 0.286407 0.286621 5.80026 0.286621 12.6019C0.286621 19.4036 5.80047 24.9175 12.6022 24.9175Z" stroke="#E2E2EB" stroke-width="0.572816"/>
</svg>
